<?xml version="1.0" encoding="utf-8"?>
<!DOCTYPE svg PUBLIC "-//W3C//DTD SVG 1.1//EN" "http://www.w3.org/Graphics/SVG/1.1/DTD/svg11.dtd">
<svg version="1.1" xmlns="http://www.w3.org/2000/svg" xmlns:xlink="http://www.w3.org/1999/xlink" x="0px" y="0px" viewBox="0 0 1000 1000" enable-background="new 0 0 1000 1000" xml:space="preserve">
<g><path fill="#FFFFFF" d="M989.8,289c-12.5-70.7-42.7-130.2-87.6-175.1c-44.9-44.9-104.4-75.1-175.1-87.6c-8.3-1.5-19,5.1-23.9,14.6c-5,9.5-2.2,18.4,6.1,19.8l-0.1,0.1c66.3,11.7,121.9,40.1,164,82.2c42.1,42.1,70.5,97.7,82.2,164c1.4,8.3,10.3,11,20,6c2.6-1.4,5-3.2,7-5.2C987.7,302.2,990.8,294.9,989.8,289z"/><path fill="#FFFFFF" d="M821.1,194.5c-26.5-26.5-59.4-46.6-97.6-58.7c-7.8-2.4-18.7,3.1-24.4,12.4c-5.8,9.2-4.3,18.8,3.5,21.3c35,11.1,65.2,29.5,89.6,54c24.5,24.5,43,55.1,54.3,90.3c2.4,7.7,12,9.2,21.3,3.4c1.9-1.2,3.7-2.6,5.2-4.2c6.1-6,9.2-14.2,7.2-20.3C867.9,254.5,847.8,221.2,821.1,194.5z"/><path fill="#FFFFFF" d="M290.9,60.7L290.9,60.7c8.2-1.5,10.9-10.4,5.9-19.9c-4.9-9.5-15.6-16.1-23.9-14.6C202.2,38.8,142.7,69,97.8,113.8C52.9,158.8,22.7,218.3,10.2,289c-1,6,2.1,13.3,7.6,18.7c2,2,4.4,3.8,7,5.2c9.6,5,18.5,2.3,19.9-6c11.7-66.3,40.1-121.9,82.2-164C169,100.8,224.6,72.4,290.9,60.7z"/><path fill="#FFFFFF" d="M300.9,148.2c-5.7-9.3-16.6-14.9-24.4-12.4c-38.2,12.1-71.1,32.2-97.6,58.7c-26.7,26.7-46.7,60-59.2,98.2c-2,6.2,1.2,14.3,7.2,20.3c1.5,1.6,3.3,3,5.3,4.2c9.3,5.8,18.9,4.3,21.3-3.4c11.4-35.2,29.8-65.8,54.3-90.3c24.4-24.4,54.7-42.8,89.6-54C305.1,167.1,306.7,157.5,300.9,148.2z"/><path fill="#FFFFFF" d="M499.2,348.6c-156.3,0-283.4,127.1-283.4,283.4c0,88.1,41.6,171.5,111.6,225.1c-0.2,0.4-0.3,0.7-0.5,1.1l-29.8,68.4c-7.1,16.3,0,35.3,15.9,42.2l3.3,1.5c15.6,6.8,34.8-1.1,41.8-17l27.1-62c72.3,32,154.9,32.2,227.4,0.3l18.5,59.7c4.3,13.7,16.5,22.9,30.5,22.9c3.1,0,6.2-0.5,9.1-1.4l3.5-1.1c7.9-2.4,14.4-7.8,18.3-15.2c4-7.7,4.8-16.6,2.2-24.9l-22.1-71.3c-0.3-1.1-0.7-2.3-1.3-3.3c69.8-53.5,111.3-136.9,111.3-224.8C782.6,475.7,655.5,348.6,499.2,348.6z M524.2,630c0,7.7-3.2,15-8.8,20.3l-112.4,106c-5.4,5.1-12.3,7.6-19.2,7.6c-7.4,0-14.8-2.9-20.3-8.8c-10.6-11.2-10.1-28.9,1.1-39.5L468.3,618V436.6c0-15.4,12.5-27.9,27.9-27.9s27.9,12.5,27.9,27.9L524.2,630L524.2,630z"/><path fill="#FFFFFF" d="M243.5,400.7L243.5,400.7c3.2,0,6.2-1.6,8.1-4.2c0.5-0.7,46.6-65.8,145.5-93.4c3.1-0.8,5.5-3.2,6.6-6.2c1.1-3,0.6-6.3-1.2-8.9c-1.6-2.3-39.8-55.4-93.4-55.4c-17.2,0-34,5.5-49.9,16.4c-26,17.7-41.5,39.3-46,64.1c-6.7,37.1,13.5,70.7,22.5,83.5C237.4,399.2,240.3,400.7,243.5,400.7z"/><path fill="#FFFFFF" d="M736.4,249c-15.9-10.9-32.8-16.4-49.9-16.4c-53.7,0-91.9,53.1-93.5,55.4c-1.8,2.6-2.3,5.9-1.2,8.9c1.1,3,3.5,5.3,6.6,6.2c98.5,27.5,145.1,92.8,145.5,93.4c1.8,2.6,4.8,4.2,8,4.2c0,0,0,0,0,0c3.2,0,6.2-1.5,8-4.2c9-12.8,29.2-46.5,22.4-83.5C777.9,288.2,762.4,266.6,736.4,249z"/></g>
</svg>